<svg id="Capa_1" enable-background="new 0 0 512 512" height="512" viewBox="0 0 512 512" width="512" xmlns="http://www.w3.org/2000/svg"><path d="m7.5 7.5h222.236v222.236h-222.236z" fill="#fc8086"/><path d="m208.054 7.5h21.682v222.236h-21.682z" fill="#fb636f"/><path d="m282.264 7.5h222.236v222.236h-222.236z" fill="#fce25c"/><path d="m482.818 7.5h21.682v222.236h-21.682z" fill="#fbd307"/><path d="m7.5 282.264h222.236v222.236h-222.236z" fill="#b9ea6a"/><path d="m208.054 282.264h21.682v222.236h-21.682z" fill="#95d528"/><path d="m282.264 282.264h222.236v222.236h-222.236z" fill="#97e4f9"/><path d="m482.818 282.264h21.682v222.236h-21.682z" fill="#0acefa"/><path d="m53.967 40.407c-4.142 0-7.5 3.358-7.5 7.5v101.016c0 4.142 3.358 7.5 7.5 7.5s7.5-3.358 7.5-7.5v-64.084l45.61 47.89v16.193c0 4.142 3.358 7.5 7.5 7.5s7.5-3.358 7.5-7.5v-101.015c0-4.142-3.358-7.5-7.5-7.5s-7.5 3.358-7.5 7.5v63.073l-45.61-47.89v-15.183c0-4.142-3.358-7.5-7.5-7.5z"/><path d="m190.768 137.811v-53.539c0-14.162-11.521-25.683-25.683-25.683h-4.041c-14.162 0-25.683 11.521-25.683 25.683 0 4.142 3.358 7.5 7.5 7.5s7.5-3.358 7.5-7.5c0-5.891 4.792-10.683 10.683-10.683h4.041c5.891 0 10.683 4.792 10.683 10.683v15.733h-22.805c-9.706 0-17.602 7.896-17.602 17.602v14.534c0 5.129 2.229 9.99 6.115 13.337 3.218 2.771 7.294 4.265 11.48 4.265.87 0 1.745-.064 2.617-.195l20.194-3.029v.383c0 4.142 3.358 7.5 7.5 7.5s7.5-3.358 7.5-7.5v-9.091zm-37.418-3.096c-1.03.152-1.747-.311-2.084-.602s-.904-.934-.904-1.971v-14.534c0-1.435 1.167-2.602 2.602-2.602h22.805v16.346z"/><path d="m229.736 0h-222.236c-4.142 0-7.5 3.358-7.5 7.5v222.236c0 4.142 3.358 7.5 7.5 7.5h222.236c4.142 0 7.5-3.358 7.5-7.5v-38.227c0-4.142-3.358-7.5-7.5-7.5s-7.5 3.358-7.5 7.5v30.727h-207.236v-207.236h207.236v141.473c0 4.142 3.358 7.5 7.5 7.5s7.5-3.358 7.5-7.5v-148.973c0-4.142-3.358-7.5-7.5-7.5z"/><path d="m53.967 190.768h129.301c4.142 0 7.5-3.358 7.5-7.5s-3.358-7.5-7.5-7.5h-129.301c-4.142 0-7.5 3.358-7.5 7.5s3.358 7.5 7.5 7.5z"/><path d="m363.077 156.423c4.142 0 7.5-3.358 7.5-7.5v-40.988h45.61v40.988c0 4.142 3.358 7.5 7.5 7.5s7.5-3.358 7.5-7.5v-101.016c0-4.142-3.358-7.5-7.5-7.5s-7.5 3.358-7.5 7.5v45.028h-45.61v-45.028c0-4.142-3.358-7.5-7.5-7.5s-7.5 3.358-7.5 7.5v101.016c0 4.142 3.358 7.5 7.5 7.5z"/><path d="m504.5 0h-222.236c-4.142 0-7.5 3.358-7.5 7.5v222.236c0 4.142 3.358 7.5 7.5 7.5h222.236c4.142 0 7.5-3.358 7.5-7.5v-222.236c0-4.142-3.358-7.5-7.5-7.5zm-7.5 222.236h-207.236v-207.236h207.236z"/><path d="m328.732 190.768h129.301c4.142 0 7.5-3.358 7.5-7.5s-3.358-7.5-7.5-7.5h-129.301c-4.142 0-7.5 3.358-7.5 7.5s3.358 7.5 7.5 7.5z"/><path d="m53.967 315.171c-4.142 0-7.5 3.358-7.5 7.5v101.016c0 4.142 3.358 7.5 7.5 7.5s7.5-3.358 7.5-7.5v-40.988h45.61v40.988c0 4.142 3.358 7.5 7.5 7.5s7.5-3.358 7.5-7.5v-101.016c0-4.142-3.358-7.5-7.5-7.5s-7.5 3.358-7.5 7.5v45.028h-45.61v-45.028c0-4.142-3.358-7.5-7.5-7.5z"/><path d="m183.268 391.791c4.142 0 7.5-3.358 7.5-7.5v-9.091c0-15.275-12.428-27.703-27.703-27.703s-27.703 12.428-27.703 27.703v28.285c0 14.162 11.521 25.683 25.683 25.683h4.041c10.866 0 20.599-6.881 24.22-17.122 1.38-3.905-.666-8.19-4.571-9.571-3.904-1.379-8.19.666-9.571 4.571-1.506 4.26-5.556 7.122-10.077 7.122h-4.041c-5.891 0-10.683-4.792-10.683-10.683v-11.693h32.905zm-32.906-16.592c0-7.004 5.699-12.703 12.703-12.703s12.703 5.699 12.703 12.703v1.591h-25.406z"/><path d="m53.967 465.533h129.301c4.142 0 7.5-3.358 7.5-7.5s-3.358-7.5-7.5-7.5h-129.301c-4.142 0-7.5 3.358-7.5 7.5s3.358 7.5 7.5 7.5z"/><path d="m328.732 315.171c-4.142 0-7.5 3.358-7.5 7.5v101.016c0 4.142 3.358 7.5 7.5 7.5s7.5-3.358 7.5-7.5v-64.083l45.609 47.89v16.193c0 4.142 3.358 7.5 7.5 7.5s7.5-3.358 7.5-7.5v-101.016c0-4.142-3.358-7.5-7.5-7.5s-7.5 3.358-7.5 7.5v63.073l-45.609-47.89v-15.183c0-4.142-3.358-7.5-7.5-7.5z"/><path d="m417.626 333.354c-4.142 0-7.5 3.358-7.5 7.5v80.813c0 4.142 3.358 7.5 7.5 7.5s7.5-3.358 7.5-7.5v-35.937h18.764c3.663 0 6.643 2.98 6.643 6.643v29.294c0 4.142 3.358 7.5 7.5 7.5s7.5-3.358 7.5-7.5v-29.294c0-11.934-9.709-21.643-21.643-21.643h-18.764v-29.876c0-4.143-3.358-7.5-7.5-7.5z"/><path d="m328.732 465.533h129.301c4.142 0 7.5-3.358 7.5-7.5s-3.358-7.5-7.5-7.5h-129.301c-4.142 0-7.5 3.358-7.5 7.5s3.358 7.5 7.5 7.5z"/><path d="m504.5 274.764h-222.236c-4.142 0-7.5 3.358-7.5 7.5v222.236c0 4.142 3.358 7.5 7.5 7.5h38.227c4.142 0 7.5-3.358 7.5-7.5s-3.358-7.5-7.5-7.5h-30.727v-207.236h207.236v207.236h-141.473c-4.142 0-7.5 3.358-7.5 7.5s3.358 7.5 7.5 7.5h148.973c4.142 0 7.5-3.358 7.5-7.5v-222.236c0-4.142-3.358-7.5-7.5-7.5z"/><path d="m229.736 274.764h-222.236c-4.142 0-7.5 3.358-7.5 7.5v38.227c0 4.142 3.358 7.5 7.5 7.5s7.5-3.358 7.5-7.5v-30.727h207.236v207.236h-207.236v-141.473c0-4.142-3.358-7.5-7.5-7.5s-7.5 3.358-7.5 7.5v148.973c0 4.142 3.358 7.5 7.5 7.5h222.236c4.142 0 7.5-3.358 7.5-7.5v-222.236c0-4.142-3.358-7.5-7.5-7.5z"/></svg>