<svg id="Layer_1" enable-background="new 0 0 512 512" height="512" viewBox="0 0 512 512" width="512" xmlns="http://www.w3.org/2000/svg"><g><path d="m74.449 249.251c4.142 0 7.5-3.358 7.5-7.5v-36.665c37.694.549 57.259 5.243 77.896 10.196 21.846 5.243 44.436 10.665 88.896 10.665 4.142 0 7.5-3.358 7.5-7.5v-131.131c0-4.142-3.358-7.5-7.5-7.5-42.686 0-63.432-4.979-85.396-10.25-20.581-4.94-41.83-10.035-81.396-10.609v-6.391c0-4.142-3.358-7.5-7.5-7.5s-7.5 3.358-7.5 7.5v189.186c0 4.141 3.358 7.499 7.5 7.499zm75.155-167.518c3.442.788 6.827 1.6 10.241 2.419 20.582 4.939 41.827 10.038 81.396 10.611v17.96c-37.693-.549-57.259-5.243-77.895-10.196-4.438-1.065-8.993-2.154-13.742-3.202zm0 32.966c3.489.797 6.9 1.612 10.242 2.414 20.581 4.94 41.829 10.035 81.396 10.609v18.605c-37.694-.549-57.259-5.243-77.896-10.196-4.487-1.077-9.009-2.161-13.742-3.204zm-67.655-40.743c22.747.332 38.893 2.172 52.655 4.669v51.348c-13.831-2.364-30.327-4.127-52.655-4.451zm0 66.565c37.694.549 57.259 5.243 77.896 10.196 20.581 4.94 41.83 10.035 81.396 10.609v17.566c-37.694-.549-57.259-5.243-77.896-10.196-20.581-4.94-41.83-10.035-81.396-10.609zm0 32.565c37.694.549 57.259 5.243 77.896 10.196 20.581 4.94 41.83 10.035 81.396 10.609v17.002c-37.694-.549-57.259-5.244-77.896-10.197-20.581-4.94-41.83-10.035-81.396-10.609z"/><path d="m509.803 164.779-26.02-26.016c-2.929-2.929-7.677-2.928-10.606 0l-70.315 70.315h-29.362l-60.973-61.817c-1.41-1.429-3.333-2.233-5.34-2.233h-28.561c-4.142 0-7.5 3.358-7.5 7.5s3.358 7.5 7.5 7.5h25.424l17.911 18.159v107.869h-204.939c-4.142 0-7.5 3.358-7.5 7.5s3.358 7.5 7.5 7.5h80.146v94.918h-76.641l-94.922-94.918h57.026c4.142 0 7.5-3.358 7.5-7.5s-3.358-7.5-7.5-7.5h-67.631v-126.028h29.449c4.142 0 7.5-3.358 7.5-7.5s-3.358-7.5-7.5-7.5h-36.949c-4.142 0-7.5 3.358-7.5 7.5v141.027c0 1.989.79 3.897 2.197 5.303l109.922 109.918c1.407 1.407 3.314 2.197 5.303 2.197h92.917l53.76 53.764c1.407 1.407 3.314 2.197 5.304 2.197h23.91c1.989 0 3.897-.79 5.303-2.197l21.734-21.734c2.929-2.929 2.929-7.677.001-10.606l-10.704-10.707 4.439-10.717h103.624l39.096 39.096c2.929 2.929 7.678 2.929 10.606 0l18.352-18.352c1.407-1.406 2.197-3.314 2.197-5.303v-20.184c0-1.989-.79-3.897-2.197-5.303l-15.074-15.074c-.002-8.035-.003-13.607-.003-21.642l21.241-21.245c1.407-1.406 2.197-3.314 2.197-5.303v-117.977l15.678-15.678c1.407-1.406 2.197-3.314 2.197-5.303v-28.621c0-1.99-.791-3.898-2.197-5.305zm-30.678 169.78-21.241 21.245c-1.407 1.406-2.197 3.314-2.197 5.303 0 10.88 0 16.978.004 27.858 0 1.988.791 3.895 2.197 5.3l15.073 15.073v13.971l-10.852 10.852-35.99-35.99c-1.406-1.407-3.314-2.197-5.303-2.197h-31.918v-28.459c0-4.142-3.358-7.5-7.5-7.5s-7.5 3.358-7.5 7.5v28.459h-64.824c-3.034 0-5.769 1.828-6.93 4.631l-8.273 19.977c-1.16 2.802-.519 6.027 1.625 8.172l8.944 8.947-14.235 14.235h-17.697l-53.76-53.764c-1.407-1.407-3.314-2.197-5.304-2.197h-1.276v-94.918h161.729v32.021c0 4.142 3.358 7.5 7.5 7.5s7.5-3.358 7.5-7.5v-32.021h90.227v33.502zm17.875-138.961-15.678 15.678c-1.407 1.406-2.197 3.314-2.197 5.303v69.477h-142.164v-92.661l28.062 28.451c1.41 1.429 3.333 2.233 5.34 2.233h35.605c1.989 0 3.897-.79 5.303-2.197l67.209-67.209 18.52 18.517z"/></g></svg>